<svg width="74" height="74" viewBox="0 0 74 74" fill="none" xmlns="http://www.w3.org/2000/svg">
<path d="M74 37C74 57.4345 57.4345 74 37 74C16.5655 74 0 57.4345 0 37C0 16.5655 16.5655 0 37 0C57.4345 0 74 16.5655 74 37Z" fill="#06283D"/>
<path fill-rule="evenodd" clip-rule="evenodd" d="M15.3606 26.9098C15.3606 14.5932 25.3561 4.59766 37.6727 4.59766C49.9893 4.59766 59.9848 14.5932 59.9848 26.9098C59.9848 27.4671 59.5331 27.9189 58.9757 27.9189C58.4184 27.9189 57.9667 27.4671 57.9667 26.9098C57.9667 15.7078 48.8747 6.61584 37.6727 6.61584C26.4707 6.61584 17.3788 15.7078 17.3788 26.9098C17.3788 38.1117 26.4707 47.2037 37.6727 47.2037C38.23 47.2037 38.6818 47.6555 38.6818 48.2128C38.6818 48.7701 38.23 49.2219 37.6727 49.2219C25.3561 49.2219 15.3606 39.2264 15.3606 26.9098Z" fill="#47B5FF"/>
<g opacity="0.4">
<path opacity="0.4" fill-rule="evenodd" clip-rule="evenodd" d="M28.1418 7.73663C28.1418 7.17932 28.5935 6.72754 29.1509 6.72754H31.2812C31.6056 6.72754 31.9103 6.88355 32.0999 7.14681C32.2896 7.41008 32.3411 7.74847 32.2383 8.05622C28.1535 20.2898 28.1535 33.529 32.2383 45.7625C32.3411 46.0702 32.2896 46.4086 32.0999 46.6719C31.9103 46.9352 31.6056 47.0912 31.2812 47.0912H29.1509C28.5935 47.0912 28.1418 46.6394 28.1418 46.0821C28.1418 45.5248 28.5935 45.073 29.1509 45.073H29.897C26.243 33.2427 26.243 20.576 29.897 8.74572H29.1509C28.5935 8.74572 28.1418 8.29394 28.1418 7.73663Z" fill="#47B5FF"/>
<path opacity="0.4" fill-rule="evenodd" clip-rule="evenodd" d="M43.7457 6.77927C44.2746 6.60358 44.8458 6.8899 45.0214 7.41879C47.1218 13.7416 48.1831 20.3251 48.1831 26.9096C48.1831 27.4669 47.7314 27.9187 47.174 27.9187C46.6167 27.9187 46.165 27.4669 46.165 26.9096C46.165 20.5419 45.1386 14.1732 43.1062 8.05502C42.9305 7.52613 43.2168 6.95496 43.7457 6.77927Z" fill="#47B5FF"/>
<path opacity="0.4" fill-rule="evenodd" clip-rule="evenodd" d="M17.9096 32.4818C18.1725 32.2921 18.5105 32.2403 18.8182 32.3425C24.9363 34.3749 31.3051 35.4013 37.6728 35.4013C38.2301 35.4013 38.6819 35.853 38.6819 36.4104C38.6819 36.9677 38.2301 37.4194 37.6728 37.4194C31.5477 37.4194 25.4235 36.5011 19.5091 34.6822V35.4304C19.5091 35.9877 19.0574 36.4395 18.5001 36.4395C17.9428 36.4395 17.491 35.9877 17.491 35.4304V33.3001C17.491 32.9759 17.6467 32.6715 17.9096 32.4818Z" fill="#47B5FF"/>
<path opacity="0.4" fill-rule="evenodd" clip-rule="evenodd" d="M56.526 21.4763C44.2924 17.3915 31.0532 17.3915 18.8197 21.4763C18.2911 21.6528 17.7195 21.3674 17.5429 20.8388C17.3664 20.3102 17.6519 19.7386 18.1805 19.562C30.8289 15.3387 44.5167 15.3387 57.1651 19.562C57.6938 19.7386 57.9792 20.3102 57.8027 20.8388C57.6262 21.3674 57.0546 21.6528 56.526 21.4763Z" fill="#47B5FF"/>
</g>
<path fill-rule="evenodd" clip-rule="evenodd" d="M43.0547 40.1171C43.0547 35.7949 46.5586 32.291 50.8807 32.291C55.2029 32.291 58.7068 35.7949 58.7068 40.1171C58.7068 44.4393 55.2029 47.9431 50.8807 47.9431C46.5586 47.9431 43.0547 44.4393 43.0547 40.1171ZM50.8807 34.3092C47.6732 34.3092 45.0729 36.9095 45.0729 40.1171C45.0729 43.3247 47.6732 45.925 50.8807 45.925C54.0883 45.925 56.6886 43.3247 56.6886 40.1171C56.6886 36.9095 54.0883 34.3092 50.8807 34.3092Z" fill="#47B5FF"/>
<path fill-rule="evenodd" clip-rule="evenodd" d="M56.132 45.3688C56.5261 44.9747 57.165 44.9747 57.5591 45.3688L59.6894 47.4991C60.0834 47.8932 60.0834 48.5321 59.6894 48.9262C59.2953 49.3202 58.6564 49.3202 58.2623 48.9262L56.132 46.7959C55.7379 46.4018 55.7379 45.7629 56.132 45.3688Z" fill="#47B5FF"/>
<path d="M37.7199 21.281L25.8086 44.0542V57.8545H21.0336V44.0542L9.06982 21.281H14.3696L23.3949 39.8039L32.4202 21.281H37.7199Z" fill="#D0ECFF"/>
<path d="M47.5315 25.164V37.3901H60.8596V41.3256H47.5315V53.919H62.4338V57.8545H42.7565V21.2285H62.4338V25.164H47.5315Z" fill="#D0ECFF"/>
</svg>
